<svg width="25" height="24" viewBox="0 0 25 24" fill="none" xmlns="http://www.w3.org/2000/svg">
<path d="M20.7997 4.57535C24.9002 8.67586 24.9002 15.3241 20.7997 19.4246M17.7064 7.66904C20.0984 10.061 20.0984 13.9391 17.7064 16.3311M6.375 7.62504L11.8813 2.11875C12.4325 1.56753 13.375 1.95793 13.375 2.73747V21.2626C13.375 22.0421 12.4325 22.4325 11.8813 21.8813L6.375 16.375H3.76056C2.73466 16.375 1.77356 15.7842 1.5011 14.7951C1.25595 13.9052 1.125 12.9679 1.125 12C1.125 11.0322 1.25595 10.0949 1.5011 9.20498C1.77356 8.21592 2.73466 7.62504 3.76056 7.62504H6.375Z" stroke="white" stroke-width="2" stroke-linecap="round" stroke-linejoin="round"/>
</svg>
